<?xml version="1.0" encoding="utf-8"?>
<!-- Generator: Adobe Illustrator 26.0.1, SVG Export Plug-In . SVG Version: 6.00 Build 0)  -->
<svg version="1.1" id="contents" xmlns="http://www.w3.org/2000/svg" xmlns:xlink="http://www.w3.org/1999/xlink" x="0px" y="0px"
	 viewBox="0 0 800 800" style="enable-background:new 0 0 800 800;" xml:space="preserve">
<style type="text/css">
	.st0{fill:#DA3927;stroke:#DA3927;stroke-miterlimit:10;}
</style>
<g>
	<path class="st0" d="M553.04,403.84c0,36.4-29.51,65.9-65.9,65.9c-36.4,0-65.91-29.51-65.91-65.9c0-36.4,29.51-65.91,65.91-65.91
		C523.54,337.93,553.04,367.44,553.04,403.84z"/>
	<path class="st0" d="M412.6,467.46c0,36.4-29.51,65.91-65.9,65.91c-36.4,0-65.9-29.51-65.9-65.91c0-36.4,29.51-65.9,65.9-65.9
		C383.1,401.56,412.6,431.06,412.6,467.46z"/>
	<g>
		<path class="st0" d="M159.88,289.88c-4.29,0-7.78-3.49-7.78-7.78s3.49-7.78,7.78-7.78h72.5c4.29,0,7.78,3.49,7.78,7.78
			s-3.49,7.78-7.78,7.78H159.88z"/>
	</g>
	<g>
		<path class="st0" d="M159.88,321.52c-4.29,0-7.78-3.49-7.78-7.78c0-4.29,3.49-7.78,7.78-7.78h81.3c4.29,0,7.78,3.49,7.78,7.78
			c0,4.29-3.49,7.78-7.78,7.78H159.88z"/>
	</g>
	<g>
		<path class="st0" d="M159.88,353.11c-4.29,0-7.78-3.49-7.78-7.78c0-4.29,3.49-7.78,7.78-7.78h55.88c4.29,0,7.78,3.49,7.78,7.78
			c0,4.29-3.49,7.78-7.78,7.78H159.88z"/>
	</g>
	<path class="st0" d="M259.76,424.97c-0.98,0-1.94-0.27-2.78-0.78l-52.67-32.06h-71.47c-9.64,0-17.49-7.85-17.49-17.49V258.91
		c0-9.64,7.85-17.49,17.49-17.49h152.97c9.64,0,17.49,7.85,17.49,17.49v115.73c0,9.64-7.85,17.49-17.49,17.49h-34.27l12.96,25.04
		c1.1,2.12,0.65,4.74-1.1,6.37C262.41,424.46,261.12,424.97,259.76,424.97z M132.85,258.69c-0.09,0-0.22,0.13-0.22,0.22v115.73
		c0,0.09,0.13,0.22,0.22,0.22h76.31l20.43,12.44l-6.44-12.44h62.66c0.09,0,0.22-0.13,0.22-0.22V258.91c0-0.09-0.13-0.22-0.22-0.22
		H132.85z"/>
	<g>
		<path class="st0" d="M543.76,199.19c-4.29,0-7.78-3.49-7.78-7.78c0-4.29,3.49-7.78,7.78-7.78h72.5c4.29,0,7.78,3.49,7.78,7.78
			c0,4.29-3.49,7.78-7.78,7.78H543.76z"/>
	</g>
	<g>
		<path class="st0" d="M543.76,230.82c-4.29,0-7.78-3.49-7.78-7.78c0-4.29,3.49-7.78,7.78-7.78h81.3c4.29,0,7.78,3.49,7.78,7.78
			c0,4.29-3.49,7.78-7.78,7.78H543.76z"/>
	</g>
	<g>
		<path class="st0" d="M543.76,262.42c-4.29,0-7.78-3.49-7.78-7.78s3.49-7.78,7.78-7.78h55.88c4.29,0,7.78,3.49,7.78,7.78
			s-3.49,7.78-7.78,7.78H543.76z"/>
	</g>
	<path class="st0" d="M536.59,332.84c-1.75-1.63-2.2-4.25-1.1-6.37l12.96-25.03h-34.27c-9.64,0-17.49-7.85-17.49-17.49V168.22
		c0-9.64,7.85-17.49,17.49-17.49h152.97c9.65,0,17.49,7.85,17.49,17.49v115.73c0,9.64-7.85,17.49-17.49,17.49h-71.47l-52.67,32.06
		c-0.84,0.51-1.8,0.78-2.78,0.78C538.88,334.27,537.59,333.76,536.59,332.84z M514.18,168c-0.09,0-0.22,0.13-0.22,0.22v115.73
		c0,0.09,0.13,0.22,0.22,0.22h62.66l-6.44,12.44l20.43-12.44h76.31c0.09,0,0.22-0.13,0.22-0.22V168.22c0-0.09-0.13-0.22-0.22-0.22
		H514.18z"/>
	<path class="st0" d="M429.25,567.74c5.74,5.51,10.87,11.51,15.33,17.91H588.2c-2.38-53.76-46.71-96.61-101.05-96.61
		c-39.77,0-74.17,22.95-90.7,56.33C408.41,550.88,419.5,558.39,429.25,567.74z"/>
	<path class="st0" d="M447.75,649.27c-2.38-53.75-46.71-96.61-101.05-96.61c-54.34,0-98.67,42.85-101.05,96.61H447.75z"/>
</g>
</svg>
