<?xml version="1.0" encoding="utf-8"?>
<!-- Generator: Adobe Illustrator 26.0.1, SVG Export Plug-In . SVG Version: 6.00 Build 0)  -->
<svg version="1.1" id="contents" xmlns="http://www.w3.org/2000/svg" xmlns:xlink="http://www.w3.org/1999/xlink" x="0px" y="0px"
	 viewBox="0 0 800 800" style="enable-background:new 0 0 800 800;" xml:space="preserve">
<style type="text/css">
	.st0{fill:#DA3927;stroke:#DA3927;stroke-miterlimit:10;}
	.st1{fill:none;stroke:#DA3927;stroke-width:9;stroke-miterlimit:10;}
</style>
<g>
	
		<ellipse transform="matrix(0.3697 -0.9291 0.9291 0.3697 39.8419 736.3307)" class="st0" cx="562.68" cy="338.8" rx="56.89" ry="56.89"/>
	
		<ellipse transform="matrix(0.7071 -0.7071 0.7071 0.7071 -169.4174 220.5815)" class="st0" cx="181.56" cy="314.8" rx="52.46" ry="52.46"/>
	<path class="st0" d="M596.73,411.87h-68.1c-44.16,0-79.96,35.8-79.96,79.96v81.09h40.41v-84.8h14v84.8h119.21v-84.8h14v84.8h40.41
		v-81.09C676.69,447.67,640.89,411.87,596.73,411.87z"/>
	<path class="st0" d="M353.7,442.64l-56.36,17.67c0,0-74.7-64.93-75.88-65.75c-7.99-6.19-18.02-9.89-28.91-9.89h-22
		c-26.09,0-47.25,21.15-47.25,47.25l3.05,141h110.39l1.66-76.77l37.1,24.15c7.35,4.7,16.84,5.75,25.42,1.95l70.93-31.4
		c11.86-5.23,18.15-18.66,14.18-31.32C381.78,445.94,367.3,438.37,353.7,442.64z"/>
	<path class="st0" d="M287.08,321.01l-13.34,13.34c-2.62,2.62-0.11,7.03,3.48,6.11l35.49-9.06c5.53,1.15,11.34,1.78,17.34,1.78
		c4.42,0,8.74-0.34,12.92-0.98c-2.73-6.63-4.23-13.72-4.23-21.1c0-26.8,19.55-49.91,47.55-60.25
		c-12.08-14.32-32.75-23.77-56.24-23.77c-37.25,0-67.45,23.75-67.45,53.05C262.61,296.58,272.13,311.28,287.08,321.01z"/>
	<path class="st0" d="M475.5,365.32l-13.34-13.34c14.95-9.73,24.47-24.43,24.47-40.89c0-29.3-30.2-53.05-67.45-53.05
		s-67.45,23.75-67.45,53.05c0,29.3,30.2,53.05,67.45,53.05c6,0,11.8-0.62,17.34-1.78l35.49,9.06
		C475.61,372.34,478.12,367.94,475.5,365.32z"/>
</g>
<rect x="77.73" y="77.73" class="st1" width="644.55" height="644.55"/>
<g>
	<path class="st0" d="M85.66,93.44c3.88-16.24,18.51-28.36,35.93-28.36h3.45c17.41,0,32.05,12.11,35.93,28.36h26.05
		c-4.19-30.45-30.38-53.99-61.97-53.99h-3.45c-31.59,0-57.78,23.53-61.97,53.99H85.66z"/>
	<path class="st0" d="M204.04,102.6H42.58c-3.02,0-5.49,2.47-5.49,5.49v113.5c0,3.02,2.47,5.49,5.49,5.49h161.46
		c3.02,0,5.49-2.47,5.49-5.49v-113.5C209.53,105.07,207.06,102.6,204.04,102.6z M131.17,169.7v18.28c0,2.83-2.32,5.15-5.15,5.15
		h-5.42c-2.83,0-5.15-2.32-5.15-5.15V169.7c-5.72-2.88-9.65-8.8-9.65-15.65c0-9.67,7.84-17.51,17.51-17.51
		c9.67,0,17.51,7.84,17.51,17.51C140.82,160.89,136.89,166.82,131.17,169.7z"/>
</g>
</svg>
